<svg xmlns="http://www.w3.org/2000/svg" viewBox="0 0 400 300">
  <rect width="400" height="300" fill="#fdf2f7"/>
  <ellipse cx="200" cy="268" rx="150" ry="18" fill="#e9cfe0"/>
  <rect x="194" y="170" width="12" height="95" rx="6" fill="#6aa84f"/>
  <path d="M200 215 Q168 205 166 183" fill="none" stroke="#6aa84f" stroke-width="7" stroke-linecap="round"/>
  <ellipse cx="162" cy="180" rx="15" ry="9" fill="#7cb95c" transform="rotate(-30 162 180)"/>
  <path d="M200 235 Q232 225 234 203" fill="none" stroke="#6aa84f" stroke-width="7" stroke-linecap="round"/>
  <ellipse cx="238" cy="200" rx="15" ry="9" fill="#7cb95c" transform="rotate(30 238 200)"/>
  <g>
    <circle cx="200" cy="105" r="30" fill="#f4a9c0"/>
    <circle cx="163" cy="132" r="30" fill="#f4a9c0"/>
    <circle cx="237" cy="132" r="30" fill="#f4a9c0"/>
    <circle cx="177" cy="168" r="30" fill="#f4a9c0"/>
    <circle cx="223" cy="168" r="30" fill="#f4a9c0"/>
    <circle cx="200" cy="140" r="27" fill="#ffd23f"/>
    <circle cx="191" cy="135" r="4.5" fill="#4a3728"/>
    <circle cx="209" cy="135" r="4.5" fill="#4a3728"/>
    <path d="M190 150 Q200 159 210 150" fill="none" stroke="#4a3728" stroke-width="3.5" stroke-linecap="round"/>
  </g>
  <g fill="#f4a9c0">
    <circle cx="80" cy="90" r="6"/><circle cx="320" cy="100" r="6"/><circle cx="110" cy="220" r="5"/><circle cx="300" cy="210" r="5"/>
  </g>
</svg>
